<?xml version="1.0" encoding="utf-8"?>
<!-- Generator: Adobe Illustrator 16.0.0, SVG Export Plug-In . SVG Version: 6.00 Build 0)  -->
<!DOCTYPE svg PUBLIC "-//W3C//DTD SVG 1.1//EN" "http://www.w3.org/Graphics/SVG/1.1/DTD/svg11.dtd">
<svg version="1.1" id="Capa_1" xmlns="http://www.w3.org/2000/svg" xmlns:xlink="http://www.w3.org/1999/xlink" x="0px" y="0px"
	 width="150px" height="332px" viewBox="0 0 150 332" enable-background="new 0 0 150 332" xml:space="preserve">
<g>
	
		<path fill="#013131" stroke="#000000" stroke-width="4" stroke-linecap="round" stroke-linejoin="round" stroke-miterlimit="10" d="
		M73.938,3.098c22.999,33.33,36.984,65.606,44.556,96.675c12.036,49.38,7.865,95.709-2.046,138.384
		c-0.448,1.959-0.917,3.908-1.394,5.848c-2.369,9.639-5.01,19.081-7.796,28.32c-2.231,7.416-4.551,14.56-6.861,21.313
		c-3.421,10.009-6.842,20.157-10.038,28.294c-1.063,2.72-2.104,5.735-3.108,8.735h-26c-0.965-3-1.949-6.016-2.963-8.735
		c-0.409-1.091-0.818-2.682-1.237-3.812c-4.444-12.123-9.258-26.625-13.8-42.286c-2.992-10.33-5.856-20.973-8.41-31.712
		c-0.458-1.939-0.906-3.947-1.354-5.905C18.398,171.051,16.743,95.113,73.938,3.098z"/>
	
		<line fill="#013131" stroke="#000000" stroke-width="4" stroke-linecap="round" stroke-linejoin="round" stroke-miterlimit="10" x1="90" y1="322.666" x2="59" y2="322.666"/>
	
		<polyline fill="#013131" stroke="#000000" stroke-width="4" stroke-linecap="round" stroke-linejoin="round" stroke-miterlimit="10" points="
		87,330.666 86.646,330.666 61.853,330.666 61.276,330.666 61,330.666 	"/>
	
		<circle fill="#013131" stroke="#000000" stroke-width="4" stroke-linecap="round" stroke-linejoin="round" stroke-miterlimit="10" cx="73.938" cy="145.005" r="23.701"/>
	
		<circle fill="#013131" stroke="#000000" stroke-width="4" stroke-linecap="round" stroke-linejoin="round" stroke-miterlimit="10" cx="73.938" cy="145.005" r="17.867"/>
	
		<path fill="#013131" stroke="#000000" stroke-width="4" stroke-linecap="round" stroke-linejoin="round" stroke-miterlimit="10" d="
		M43.254,275.595c4.533,15.662,9.353,29.928,13.798,42.059l-53.266-2.771L43.254,275.595z"/>
	
		<path fill="#013131" stroke="#000000" stroke-width="4" stroke-linecap="round" stroke-linejoin="round" stroke-miterlimit="10" d="
		M106.5,275.68c-4.827,15.573-9.916,29.746-14.59,41.79l53.309-1.766L106.5,275.68z"/>
	
		<rect x="73" y="273.666" fill="#013131" stroke="#000000" stroke-width="4" stroke-linecap="round" stroke-linejoin="round" stroke-miterlimit="10" width="6" height="46"/>
	
		<line fill="#013131" stroke="#000000" stroke-width="4" stroke-linecap="round" stroke-linejoin="round" stroke-miterlimit="10" x1="114" y1="245.666" x2="35" y2="245.666"/>
	
		<polyline fill="#013131" stroke="#000000" stroke-width="4" stroke-linecap="round" stroke-linejoin="round" stroke-miterlimit="10" points="
		33,97.666 33.805,97.666 117,97.666 	"/>
	
		<polyline fill="#013131" stroke="#000000" stroke-width="4" stroke-linecap="round" stroke-linejoin="round" stroke-miterlimit="10" points="
		34,239.666 34.625,239.666 116,239.666 	"/>
	
		<polyline fill="#013131" stroke="#000000" stroke-width="4" stroke-linecap="round" stroke-linejoin="round" stroke-miterlimit="10" points="
		32,101.666 118.952,101.666 119,101.666 	"/>
</g>
</svg>
